# xmcd CD database file
#
# Track frame offsets:
#	150
#	22137
#	44905
#	67117
#	87275
#	107287
#	128345
#	153655
#
# Disc length: 2314 seconds
#
# Revision: 0
# Processed by: cddbd v1.5.2PL0 Copyright (c) Steve Scherf et al.
# Submitted via: CDex 1.51
#
DISCID=68090808
DTITLE=Lesly Daily - El ano dos mil
DYEAR=2000
DGENRE=Salsa
TTITLE0=Amor moderno
TTITLE1=Fuerza de voluntad
TTITLE2=El ano dos mil
TTITLE3=Juntos los dos
TTITLE4=Caliente y sensual
TTITLE5=Culdate
TTITLE6=Coqueta
TTITLE7=No es solo sexo
EXTD=YEAR: 2000
EXTT0=
EXTT1=
EXTT2=
EXTT3=
EXTT4=
EXTT5=
EXTT6=
EXTT7=
PLAYORDER=
